<?xml version="1.0" encoding="UTF-8"?>
<svg id="Layer_2" data-name="Layer 2" xmlns="http://www.w3.org/2000/svg" viewBox="0 0 285.08 232.98">
  <defs>
    <style>
      .cls-1 {
        stroke-width: 3px;
      }

      .cls-1, .cls-2, .cls-3, .cls-4, .cls-5, .cls-6, .cls-7 {
        stroke-miterlimit: 10;
      }

      .cls-1, .cls-2, .cls-3, .cls-4, .cls-5, .cls-6, .cls-7, .cls-8 {
        stroke: #5d5a59;
      }

      .cls-1, .cls-2, .cls-4, .cls-8 {
        fill: none;
      }

      .cls-2, .cls-3, .cls-8 {
        stroke-width: 5px;
      }

      .cls-3, .cls-6 {
        fill: #878787;
      }

      .cls-5 {
        fill: #686868;
      }

      .cls-9, .cls-7 {
        fill: #5d5a59;
      }

      .cls-8 {
        stroke-linecap: round;
        stroke-linejoin: round;
      }
    </style>
  </defs>
  <g id="blue_bg">
    <g>
      <path class="cls-9" d="m278.58,118.04c-2.17-2.83-4.37-5.62-6.58-8.41l-6.61-8.38-6.66-8.34-6.7-8.3-6.73-8.28-6.76-8.25-6.8-8.22-2.87-3.47-3.72,3.12-9.36,7.84-9.32,7.88-9.29,7.91-3.56,3.04-8.36-14.36-12.12-20.54-12.24-20.47-12.34-20.41-6.28-10.39-6.22,10.51c-3.5,5.91-6.94,11.86-10.39,17.8-3.44,5.94-6.92,11.87-10.33,17.84l-10.25,17.88-5.62,9.94-4.21-4.67-10.55-11.64-5.17-5.7-4.26,6.04c-4.67,6.62-9.38,13.21-14.01,19.87l-6.97,9.96-3.4,4.91-3.21-4.33-7.14-9.55-2.95-3.94-2.74,3.69-8.84,11.87c-2.93,3.97-5.87,7.93-8.76,11.94l-8.69,11.99c-2.85,4.04-5.75,8.04-8.55,12.11,3.46-3.54,6.83-7.15,10.24-10.72l10.1-10.83c3.38-3.6,6.7-7.25,10.04-10.88l6.67-7.33,3.88,6.26,6.32,10.11,3.29,5.27,4.12-5.11,7.63-9.46,7.58-9.5c3.48-4.34,6.92-8.7,10.35-13.07l5.34,6.43,10.07,12.05,5.93,7.1,4.9-8.11,10.66-17.64,10.56-17.7c3.54-5.89,6.99-11.83,10.49-17.74,1.43-2.43,2.86-4.86,4.29-7.29l6.12,9.94,12.6,20.25,12.72,20.18,12.84,20.11,4.07,6.38,5.28-5.02,8.85-8.4,8.83-8.42,8.8-8.46,5.54-5.36,4.05,4.19,7.45,7.64,7.48,7.61,7.5,7.59,7.55,7.55,7.59,7.51c2.53,2.51,5.06,5.01,7.63,7.47,2.56,2.48,5.11,4.96,7.7,7.41-2.14-2.85-4.33-5.66-6.51-8.48Z"/>
      <g>
        <g>
          <g>
            <g>
              <line class="cls-4" x1="89.13" y1="162.14" x2="89.13" y2="230.19"/>
              <line class="cls-4" x1="123.15" y1="196.16" x2="55.1" y2="196.16"/>
            </g>
            <g>
              <line class="cls-4" x1="113.19" y1="172.1" x2="65.07" y2="220.22"/>
              <line class="cls-4" x1="113.19" y1="220.22" x2="65.07" y2="172.1"/>
            </g>
          </g>
          <g>
            <g>
              <g>
                <line class="cls-4" x1="89.13" y1="162.14" x2="89.13" y2="230.19"/>
                <line class="cls-4" x1="123.15" y1="196.16" x2="55.1" y2="196.16"/>
              </g>
              <g>
                <line class="cls-4" x1="113.19" y1="172.1" x2="65.07" y2="220.22"/>
                <line class="cls-4" x1="113.19" y1="220.22" x2="65.07" y2="172.1"/>
              </g>
            </g>
            <g>
              <g>
                <line class="cls-4" x1="101.61" y1="164.51" x2="76.64" y2="227.81"/>
                <line class="cls-4" x1="120.78" y1="208.65" x2="57.48" y2="183.67"/>
              </g>
              <g>
                <line class="cls-4" x1="120.34" y1="182.61" x2="57.92" y2="209.71"/>
                <line class="cls-4" x1="102.68" y1="227.37" x2="75.58" y2="164.95"/>
              </g>
            </g>
          </g>
          <g>
            <g>
              <g>
                <line class="cls-4" x1="95.92" y1="162.82" x2="82.34" y2="229.5"/>
                <line class="cls-4" x1="122.47" y1="202.95" x2="55.79" y2="189.37"/>
              </g>
              <g>
                <line class="cls-4" x1="117.5" y1="177.39" x2="60.75" y2="214.93"/>
                <line class="cls-4" x1="107.9" y1="224.54" x2="70.35" y2="167.78"/>
              </g>
            </g>
            <g>
              <g>
                <line class="cls-4" x1="107.68" y1="167.64" x2="70.57" y2="224.68"/>
                <line class="cls-4" x1="117.65" y1="214.71" x2="60.61" y2="177.61"/>
              </g>
              <g>
                <line class="cls-4" x1="122.41" y1="189.11" x2="55.84" y2="203.21"/>
                <line class="cls-4" x1="96.17" y1="229.45" x2="82.08" y2="162.87"/>
              </g>
            </g>
          </g>
        </g>
        <g>
          <g>
            <g>
              <line class="cls-4" x1="196.73" y1="162.14" x2="196.73" y2="230.19"/>
              <line class="cls-4" x1="230.75" y1="196.16" x2="162.7" y2="196.16"/>
            </g>
            <g>
              <line class="cls-4" x1="220.79" y1="172.1" x2="172.67" y2="220.22"/>
              <line class="cls-4" x1="220.79" y1="220.22" x2="172.67" y2="172.1"/>
            </g>
          </g>
          <g>
            <g>
              <g>
                <line class="cls-4" x1="196.73" y1="162.14" x2="196.73" y2="230.19"/>
                <line class="cls-4" x1="230.75" y1="196.16" x2="162.7" y2="196.16"/>
              </g>
              <g>
                <line class="cls-4" x1="220.79" y1="172.1" x2="172.67" y2="220.22"/>
                <line class="cls-4" x1="220.79" y1="220.22" x2="172.67" y2="172.1"/>
              </g>
            </g>
            <g>
              <g>
                <line class="cls-4" x1="209.22" y1="164.51" x2="184.24" y2="227.81"/>
                <line class="cls-4" x1="228.38" y1="208.65" x2="165.08" y2="183.67"/>
              </g>
              <g>
                <line class="cls-4" x1="227.94" y1="182.61" x2="165.52" y2="209.71"/>
                <line class="cls-4" x1="210.28" y1="227.37" x2="183.18" y2="164.95"/>
              </g>
            </g>
          </g>
          <g>
            <g>
              <g>
                <line class="cls-4" x1="203.52" y1="162.82" x2="189.94" y2="229.5"/>
                <line class="cls-4" x1="230.07" y1="202.95" x2="163.39" y2="189.37"/>
              </g>
              <g>
                <line class="cls-4" x1="225.11" y1="177.39" x2="168.35" y2="214.93"/>
                <line class="cls-4" x1="215.5" y1="224.54" x2="177.96" y2="167.78"/>
              </g>
            </g>
            <g>
              <g>
                <line class="cls-4" x1="215.28" y1="167.64" x2="178.17" y2="224.68"/>
                <line class="cls-4" x1="225.25" y1="214.71" x2="168.21" y2="177.61"/>
              </g>
              <g>
                <line class="cls-4" x1="230.01" y1="189.11" x2="163.44" y2="203.21"/>
                <line class="cls-4" x1="203.78" y1="229.45" x2="189.68" y2="162.87"/>
              </g>
            </g>
          </g>
        </g>
        <circle class="cls-2" cx="87.99" cy="196.06" r="34.42" transform="translate(-112.87 119.65) rotate(-45)"/>
        <circle class="cls-6" cx="196.73" cy="196.06" r="6.51"/>
        <circle class="cls-2" cx="196.73" cy="196.06" r="34.42" transform="translate(-81.02 196.53) rotate(-45)"/>
        <polygon class="cls-8" points="87.99 196.06 138.34 196.06 180.49 136.26 107.72 150.22 87.99 196.06"/>
        <line class="cls-8" x1="138.34" y1="196.06" x2="100.25" y2="138.86"/>
        <polyline class="cls-8" points="177.61 116.78 180.49 136.26 196.73 196.06"/>
        <g>
          <circle class="cls-3" cx="138.11" cy="196.29" r="9.77"/>
          <line class="cls-1" x1="138.11" y1="187.85" x2="91.89" y2="189.55"/>
          <line class="cls-1" x1="138.11" y1="204.95" x2="87.45" y2="208.94"/>
          <circle class="cls-6" cx="89.13" cy="196.29" r="8.04" transform="translate(-112.69 120.51) rotate(-45)"/>
          <path class="cls-5" d="m92.58,196.29c0,1.91-1.54,3.45-3.45,3.45s-3.45-1.54-3.45-3.45,1.54-3.45,3.45-3.45,3.45,1.54,3.45,3.45Z"/>
          <line class="cls-1" x1="139.98" y1="179.81" x2="135.35" y2="212.68"/>
          <path class="cls-5" d="m142.6,180.91h-5.24c-.8,0-1.46-.66-1.46-1.46h0c0-.8.66-1.46,1.46-1.46h5.24c.8,0,1.46.66,1.46,1.46h0c0,.8-.66,1.46-1.46,1.46Z"/>
          <path class="cls-5" d="m137.97,214.14h-5.24c-.8,0-1.46-.66-1.46-1.46h0c0-.8.66-1.46,1.46-1.46h5.24c.8,0,1.46.66,1.46,1.46h0c0,.8-.66,1.46-1.46,1.46Z"/>
          <path class="cls-5" d="m143.63,196.29c0,3.05-2.47,5.52-5.52,5.52s-5.52-2.47-5.52-5.52,2.47-5.52,5.52-5.52,5.52,2.47,5.52,5.52Z"/>
          <path class="cls-5" d="m87.3,197.12l-1.13,4.4c.3,1.1,2.98,1.83-.03,5.48,0,0-.94,1.77.58,2.68,1.52.91,2.41-.91,2.41-.91l3.45-12.47-5.27.83Z"/>
        </g>
        <path class="cls-7" d="m93.52,133.92c2.8.83,5.6,1.29,8.41,1.67,1.4.17,2.8.32,4.2.41,1.4.09,2.8.13,4.2.06.98-.05,1.81.69,1.87,1.67.05.98-.69,1.81-1.67,1.87-.07,0-.13,0-.2,0-1.4-.08-2.8-.03-4.2.06-1.4.08-2.8.23-4.2.41-2.8.38-5.6.85-8.41,1.67-2.16.64-4.42-.6-5.06-2.75-.64-2.16.6-4.42,2.75-5.06.78-.23,1.58-.22,2.3,0Z"/>
        <path class="cls-8" d="m176.39,116.29h13.56s9.09.49,9.09,10.06-9.58,8.12-9.58,8.12"/>
      </g>
    </g>
  </g>
</svg>