<?xml version="1.0" encoding="UTF-8"?>
<svg id="Layer_2" data-name="Layer 2" xmlns="http://www.w3.org/2000/svg" viewBox="0 0 179.57 117.19">
  <defs>
    <style>
      .cls-1, .cls-2 {
        fill: #686868;
      }

      .cls-1, .cls-3, .cls-4, .cls-5 {
        stroke-miterlimit: 10;
      }

      .cls-1, .cls-3, .cls-4, .cls-5, .cls-6 {
        stroke: #497c91;
      }

      .cls-2 {
        stroke-width: 0px;
      }

      .cls-3 {
        fill: #497c91;
      }

      .cls-4 {
        stroke-width: 2px;
      }

      .cls-4, .cls-5, .cls-6 {
        fill: none;
      }

      .cls-6 {
        stroke-linecap: round;
        stroke-linejoin: round;
        stroke-width: 4px;
      }
    </style>
  </defs>
  <g id="blue_bg">
    <polygon class="cls-6" points="35.42 81.77 85.76 81.77 127.91 21.97 55.14 35.93 35.42 81.77"/>
    <circle class="cls-4" cx="35.42" cy="81.77" r="34.42" transform="translate(-47.45 48.99) rotate(-45)"/>
    <circle class="cls-4" cx="144.15" cy="81.77" r="34.42" transform="translate(-15.6 125.88) rotate(-45)"/>
    <line class="cls-6" x1="85.76" y1="81.77" x2="47.67" y2="24.56"/>
    <polyline class="cls-6" points="125.03 2.49 127.91 21.97 144.15 81.77"/>
    <path class="cls-6" d="m123.81,2h13.56s9.09.49,9.09,10.06-9.58,8.12-9.58,8.12"/>
    <line class="cls-5" x1="87.4" y1="65.52" x2="82.77" y2="98.39"/>
    <line class="cls-4" x1="85.53" y1="73.56" x2="39.31" y2="75.26"/>
    <line class="cls-4" x1="85.53" y1="90.66" x2="34.87" y2="94.65"/>
    <circle class="cls-1" cx="144.15" cy="81.77" r="6.51"/>
    <circle class="cls-3" cx="85.53" cy="82" r="9.77"/>
    <path class="cls-1" d="m91.05,82c0,3.05-2.47,5.52-5.52,5.52s-5.52-2.47-5.52-5.52,2.47-5.52,5.52-5.52,5.52,2.47,5.52,5.52Z"/>
    <circle class="cls-3" cx="36.55" cy="82" r="8.04" transform="translate(-47.28 49.86) rotate(-45)"/>
    <path class="cls-2" d="m40,82c0,1.91-1.54,3.45-3.45,3.45s-3.45-1.54-3.45-3.45,1.54-3.45,3.45-3.45,3.45,1.54,3.45,3.45Z"/>
    <path class="cls-2" d="m90.02,66.62h-5.24c-.8,0-1.46-.66-1.46-1.46h0c0-.8.66-1.46,1.46-1.46h5.24c.8,0,1.46.66,1.46,1.46h0c0,.8-.66,1.46-1.46,1.46Z"/>
    <path class="cls-2" d="m85.39,99.85h-5.24c-.8,0-1.46-.66-1.46-1.46h0c0-.8.66-1.46,1.46-1.46h5.24c.8,0,1.46.66,1.46,1.46h0c0,.8-.66,1.46-1.46,1.46Z"/>
    <path class="cls-2" d="m34.72,82.83l-1.13,4.4c.3,1.1,2.98,1.83-.03,5.48,0,0-.94,1.77.58,2.68,1.52.91,2.41-.91,2.41-.91l3.45-12.47-5.27.83Z"/>
    <path class="cls-3" d="m40.94,19.63c2.8.83,5.6,1.29,8.41,1.67,1.4.17,2.8.32,4.2.41,1.4.09,2.8.13,4.2.06.98-.05,1.81.69,1.87,1.67.05.98-.69,1.81-1.67,1.87-.07,0-.13,0-.2,0-1.4-.08-2.8-.03-4.2.06-1.4.08-2.8.23-4.2.41-2.8.38-5.6.85-8.41,1.67-2.16.64-4.42-.6-5.06-2.75-.64-2.16.6-4.42,2.75-5.06.78-.23,1.58-.22,2.3,0Z"/>
  </g>
</svg>