<?xml version="1.0" encoding="UTF-8"?>
<svg id="Layer_2" data-name="Layer 2" xmlns="http://www.w3.org/2000/svg" viewBox="0 0 285.89 232.45">
  <defs>
    <style>
      .cls-1, .cls-2, .cls-3, .cls-4 {
        stroke-miterlimit: 10;
      }

      .cls-1, .cls-2, .cls-3, .cls-4, .cls-5 {
        stroke: #fff;
      }

      .cls-1, .cls-2, .cls-5 {
        fill: none;
      }

      .cls-6, .cls-7 {
        stroke-width: 0px;
      }

      .cls-6, .cls-3 {
        fill: #686868;
      }

      .cls-2 {
        stroke-width: 2px;
      }

      .cls-7, .cls-4 {
        fill: #fff;
      }

      .cls-5 {
        stroke-linecap: round;
        stroke-linejoin: round;
        stroke-width: 4px;
      }
    </style>
  </defs>
  <g id="blue_bg">
    <path class="cls-4" d="m278.99,119.01c-2.17-2.83-4.37-5.62-6.58-8.41l-6.61-8.38-6.66-8.34-6.7-8.3-6.73-8.28-6.76-8.25-6.8-8.22-2.87-3.47-3.72,3.12-9.36,7.84-9.32,7.88-9.29,7.91-3.56,3.04-8.36-14.36-12.12-20.54-12.24-20.47-12.34-20.41-6.28-10.39-6.22,10.51c-3.5,5.91-6.94,11.86-10.39,17.8-3.44,5.94-6.92,11.87-10.33,17.84l-10.25,17.88-5.62,9.94-4.21-4.67-10.55-11.64-5.17-5.7-4.26,6.04c-4.67,6.62-9.38,13.21-14.01,19.87l-6.97,9.96-3.4,4.91-3.21-4.33-7.14-9.55-2.95-3.94-2.74,3.69-8.84,11.87c-2.93,3.97-5.87,7.93-8.76,11.94l-8.69,11.99c-2.85,4.04-5.75,8.04-8.55,12.11,3.46-3.54,6.83-7.15,10.24-10.72l10.1-10.83c3.38-3.6,6.7-7.25,10.04-10.88l6.67-7.33,3.88,6.26,6.32,10.11,3.29,5.27,4.12-5.11,7.63-9.46,7.58-9.5c3.48-4.34,6.92-8.7,10.35-13.07l5.34,6.43,10.07,12.05,5.93,7.1,4.9-8.11,10.66-17.64,10.56-17.7c3.54-5.89,6.99-11.83,10.49-17.74,1.43-2.43,2.86-4.86,4.29-7.29l6.12,9.94,12.6,20.25,12.72,20.18,12.84,20.11,4.07,6.38,5.28-5.02,8.85-8.4,8.83-8.42,8.8-8.46,5.54-5.36,4.05,4.19,7.45,7.64,7.48,7.61,7.5,7.59,7.55,7.55,7.59,7.51c2.53,2.51,5.06,5.01,7.63,7.47,2.56,2.48,5.11,4.96,7.7,7.41-2.14-2.85-4.33-5.66-6.51-8.48Z"/>
    <polygon class="cls-5" points="88.41 197.04 138.75 197.04 180.9 137.23 108.13 151.19 88.41 197.04"/>
    <circle class="cls-2" cx="88.41" cy="197.04" r="34.42" transform="translate(-113.43 120.22) rotate(-45)"/>
    <circle class="cls-2" cx="197.14" cy="197.04" r="34.42" transform="translate(-81.59 197.11) rotate(-45)"/>
    <line class="cls-5" x1="138.75" y1="197.04" x2="100.66" y2="139.83"/>
    <polyline class="cls-5" points="178.02 117.75 180.9 137.23 197.14 197.04"/>
    <path class="cls-5" d="m176.8,117.26h13.56s9.09.49,9.09,10.06-9.58,8.12-9.58,8.12"/>
    <line class="cls-1" x1="140.39" y1="180.78" x2="135.76" y2="213.66"/>
    <line class="cls-2" x1="138.52" y1="188.83" x2="92.3" y2="190.52"/>
    <line class="cls-2" x1="138.52" y1="205.93" x2="87.86" y2="209.92"/>
    <circle class="cls-3" cx="197.14" cy="197.04" r="6.51"/>
    <circle class="cls-4" cx="138.52" cy="197.26" r="9.77"/>
    <path class="cls-3" d="m144.04,197.26c0,3.05-2.47,5.52-5.52,5.52s-5.52-2.47-5.52-5.52,2.47-5.52,5.52-5.52,5.52,2.47,5.52,5.52Z"/>
    <circle class="cls-7" cx="89.54" cy="197.26" r="8.04" transform="translate(-113.26 121.09) rotate(-45)"/>
    <path class="cls-6" d="m92.99,197.26c0,1.91-1.54,3.45-3.45,3.45s-3.45-1.54-3.45-3.45,1.54-3.45,3.45-3.45,3.45,1.54,3.45,3.45Z"/>
    <path class="cls-6" d="m143.01,181.88h-5.24c-.8,0-1.46-.66-1.46-1.46h0c0-.8.66-1.46,1.46-1.46h5.24c.8,0,1.46.66,1.46,1.46h0c0,.8-.66,1.46-1.46,1.46Z"/>
    <path class="cls-6" d="m138.38,215.12h-5.24c-.8,0-1.46-.66-1.46-1.46h0c0-.8.66-1.46,1.46-1.46h5.24c.8,0,1.46.66,1.46,1.46h0c0,.8-.66,1.46-1.46,1.46Z"/>
    <path class="cls-6" d="m87.71,198.1l-1.13,4.4c.3,1.1,2.98,1.83-.03,5.48,0,0-.94,1.77.58,2.68,1.52.91,2.41-.91,2.41-.91l3.45-12.47-5.27.83Z"/>
    <path class="cls-7" d="m93.93,134.9c2.8.83,5.6,1.29,8.41,1.67,1.4.17,2.8.32,4.2.41,1.4.09,2.8.13,4.2.06.98-.05,1.81.69,1.87,1.67.05.98-.69,1.81-1.67,1.87-.07,0-.13,0-.2,0-1.4-.08-2.8-.03-4.2.06-1.4.08-2.8.23-4.2.41-2.8.38-5.6.85-8.41,1.67-2.16.64-4.42-.6-5.06-2.75-.64-2.16.6-4.42,2.75-5.06.78-.23,1.58-.22,2.3,0Z"/>
  </g>
</svg>